<?xml version="1.0" encoding="UTF-8"?><svg id="Layer_1" xmlns="http://www.w3.org/2000/svg" viewBox="0 0 80.44 32.57"><defs><style>.cls-1{fill:#202020;}</style></defs><g><path class="cls-1" d="M43.09,16.77h-7.91c1,.2,1.85,.56,2.5,1.13,1,.88,1.5,2.11,1.5,3.72,0,1.7-.5,3.01-1.5,3.96s-2.42,1.41-4.25,1.41h-1.94v3.65h5.75l5.85-13.86Z"/><path class="cls-1" d="M31.49,20.12v3.34h1.7c.51,0,.9-.15,1.17-.45,.27-.3,.41-.72,.41-1.25s-.14-.92-.41-1.21c-.27-.29-.66-.43-1.17-.43h-1.7Z"/><path class="cls-1" d="M23.15,30.39c-.25,.09-.52,.17-.79,.24h4.47v-13.86h-3.27c.99,.3,1.87,.67,2.61,1.14l-1.68,3.55c-.76-.44-1.61-.83-2.54-1.16-.94-.33-1.7-.5-2.28-.5s-.86,.21-.86,.62c0,.32,.18,.57,.55,.74,.37,.17,.95,.37,1.75,.58,1,.28,1.83,.56,2.49,.84,.66,.28,1.24,.72,1.73,1.33,.49,.61,.74,1.41,.74,2.39s-.26,1.87-.79,2.55-1.24,1.2-2.13,1.53Z"/><polygon class="cls-1" points="46.85 25.33 45.41 21.22 43.92 25.33 46.85 25.33"/><path class="cls-1" d="M2.21,27.87v2.76h15.56c-.45-.09-.9-.2-1.35-.35-1.26-.41-2.35-.96-3.27-1.67l1.72-3.5c.71,.61,1.6,1.14,2.66,1.57,1.07,.43,1.96,.65,2.68,.65,.35,0,.62-.06,.82-.19s.3-.32,.3-.59c0-.32-.19-.57-.57-.75-.38-.18-.98-.37-1.79-.57-.99-.25-1.81-.52-2.47-.79-.66-.27-1.23-.7-1.71-1.27-.48-.57-.72-1.34-.72-2.3s.25-1.75,.74-2.45c.49-.7,1.19-1.24,2.1-1.61,.02,0,.04-.01,.06-.02h-5.08"/><polygon class="cls-1" points="47.99 28.65 42.72 28.65 42 30.63 48.69 30.63 47.99 28.65"/><path class="cls-1" d="M66.14,18.89l-2.68,3.19c-.41-.57-.91-1.04-1.49-1.39-.58-.35-1.15-.53-1.69-.53s-1.04,.14-1.49,.43-.79,.68-1.04,1.19c-.25,.51-.37,1.08-.37,1.72s.12,1.22,.37,1.73c.25,.51,.59,.92,1.04,1.21,.45,.29,.95,.44,1.49,.44,.51,0,1.05-.15,1.63-.45s1.1-.7,1.55-1.19l2.68,2.87c-.79,.87-1.73,1.56-2.83,2.07-.4,.19-.81,.33-1.21,.45h4.61v-11.18"/><path class="cls-1" d="M56.21,30c-1.13-.63-2.01-1.52-2.65-2.64-.64-1.13-.96-2.39-.96-3.79s.33-2.63,.98-3.74,1.56-1.97,2.71-2.59c.34-.18,.69-.33,1.05-.46h-9.34l5.64,13.86h4.12c-.54-.16-1.06-.36-1.54-.63Z"/><g><polygon class="cls-1" points="77.92 25.37 77.4 25.37 71.35 25.37 71.35 27.11 77.96 27.11 77.96 25.37 77.92 25.37"/><polygon class="cls-1" points="77.92 21.84 77.96 21.84 77.96 20.12 71.35 20.12 71.35 21.84 77.4 21.84 77.92 21.84"/></g></g><g><path class="cls-1" d="M15.81,14.26l-2.7-2.88c-.46,.5-.98,.9-1.56,1.2s-1.13,.45-1.64,.45c-.55,0-1.05-.15-1.5-.44-.45-.3-.8-.7-1.05-1.22-.25-.52-.37-1.1-.37-1.74s.12-1.22,.37-1.73c.25-.51,.6-.91,1.05-1.2,.45-.29,.95-.43,1.5-.43s1.12,.18,1.7,.53c.58,.36,1.08,.82,1.5,1.4l2.7-3.2c-.72-.79-1.63-1.43-2.72-1.9-1.09-.48-2.17-.71-3.24-.71-1.46,0-2.77,.32-3.94,.95-1.16,.63-2.07,1.5-2.73,2.61-.66,1.11-.99,2.36-.99,3.75,0,.06,0,.12,.01,.18h-.01V27.87s10.43-10.43,10.43-10.43l3.18-3.18Z"/><path class="cls-1" d="M28.74,10.41c.38-.76,.57-1.65,.57-2.67,0-1.61-.52-2.85-1.57-3.73-1.05-.88-2.53-1.32-4.45-1.32h-6.82v14.11h4.67v-3.66h1.75l1.69,3.66h5.27l-2.78-4.59c.72-.44,1.28-1.04,1.66-1.8Zm-4.27-1.27c-.28,.3-.67,.45-1.18,.45h-2.15v-3.36h2.15c.51,0,.9,.14,1.18,.43,.28,.29,.41,.69,.41,1.22s-.14,.96-.41,1.26Z"/><path class="cls-1" d="M38.74,10.94c0,.68-.18,1.24-.54,1.66-.36,.42-.82,.63-1.37,.63s-1.05-.21-1.45-.64c-.4-.43-.6-.98-.6-1.65V2.69h-4.67V10.94c0,1.23,.28,2.32,.84,3.25,.56,.93,1.34,1.65,2.36,2.16,1.01,.51,2.18,.76,3.51,.76s2.49-.25,3.48-.76c.99-.51,1.76-1.23,2.3-2.16,.54-.93,.82-2.02,.82-3.25V2.69h-4.67V10.94Z"/><polygon class="cls-1" points="52.91 10.06 49.41 2.69 44.46 2.69 44.46 16.8 48.54 16.8 48.54 9.07 51.38 15.43 54.42 15.43 57.26 9.07 57.26 16.8 61.34 16.8 61.34 2.69 56.39 2.69 52.91 10.06"/><path class="cls-1" d="M73.34,4.01c-1.01-.88-2.43-1.32-4.27-1.32h-6.62v14.11h.46c.17,.06,.35,.12,.52,.2,1.08,.47,1.98,1.11,2.7,1.89l.56,.56v-2.09c0-.94,.21-1.77,.7-2.47,.5-.7,1.2-1.24,2.11-1.62,.18-.07,.37-.16,.56-.19,1.35-.18,2.45-.6,3.26-1.36,1.01-.95,1.51-2.27,1.51-3.98,0-1.61-.5-2.85-1.51-3.73Zm-3.33,5.13c-.28,.3-.67,.45-1.18,.45h-1.71v-3.36h1.71c.51,0,.9,.14,1.18,.43,.27,.29,.41,.69,.41,1.22s-.14,.96-.41,1.26Z"/></g></svg>